<svg width="20" height="20" viewBox="0 0 20 20" fill="none" xmlns="http://www.w3.org/2000/svg">
<g clip-path="url(#clip0_14_330)">
<path d="M4.16665 18.3334C3.94563 18.3334 3.73367 18.2456 3.57739 18.0893C3.42111 17.9331 3.33331 17.7211 3.33331 17.5001V2.50008C3.33331 2.27907 3.42111 2.06711 3.57739 1.91083C3.73367 1.75455 3.94563 1.66675 4.16665 1.66675H15.8333C16.0543 1.66675 16.2663 1.75455 16.4226 1.91083C16.5788 2.06711 16.6666 2.27907 16.6666 2.50008V5.00008H15V3.33341H4.99998V16.6667H15V15.0001H16.6666V17.5001C16.6666 17.7211 16.5788 17.9331 16.4226 18.0893C16.2663 18.2456 16.0543 18.3334 15.8333 18.3334H4.16665ZM15 13.3334V10.8334H9.16665V9.16675H15V6.66675L19.1666 10.0001L15 13.3334Z" fill="#103757"/>
</g>
<defs>
<clipPath id="clip0_14_330">
<rect width="20" height="20" fill="white"/>
</clipPath>
</defs>
</svg>
