<svg width="20" height="20" viewBox="0 0 20 20" fill="none" xmlns="http://www.w3.org/2000/svg">
<g clip-path="url(#clip0_14_303)">
<path d="M15 8.33342C15 7.00733 14.4732 5.73556 13.5356 4.79788C12.5979 3.8602 11.3261 3.33341 10 3.33341C8.67394 3.33341 7.40217 3.8602 6.46449 4.79788C5.5268 5.73556 5.00002 7.00733 5.00002 8.33342V15.0001H15V8.33342ZM16.6667 15.5559L17 16.0001C17.0464 16.062 17.0747 16.1356 17.0817 16.2127C17.0886 16.2897 17.074 16.3672 17.0394 16.4364C17.0048 16.5056 16.9516 16.5638 16.8857 16.6045C16.8199 16.6452 16.7441 16.6667 16.6667 16.6667H3.33335C3.25597 16.6667 3.18012 16.6452 3.1143 16.6045C3.04848 16.5638 2.99528 16.5056 2.96068 16.4364C2.92607 16.3672 2.91142 16.2897 2.91837 16.2127C2.92532 16.1356 2.95359 16.062 3.00002 16.0001L3.33335 15.5559V8.33342C3.33335 6.5653 4.03573 4.86961 5.28598 3.61937C6.53622 2.36913 8.23191 1.66675 10 1.66675C11.7681 1.66675 13.4638 2.36913 14.7141 3.61937C15.9643 4.86961 16.6667 6.5653 16.6667 8.33342V15.5559ZM7.91669 17.5001H12.0834C12.0834 18.0526 11.8639 18.5825 11.4732 18.9732C11.0825 19.3639 10.5526 19.5834 10 19.5834C9.44749 19.5834 8.91758 19.3639 8.52688 18.9732C8.13618 18.5825 7.91669 18.0526 7.91669 17.5001Z" fill="white"/>
</g>
<defs>
<clipPath id="clip0_14_303">
<rect width="20" height="20" fill="white"/>
</clipPath>
</defs>
</svg>
