<svg width="20" height="20" viewBox="0 0 20 20" fill="none" xmlns="http://www.w3.org/2000/svg">
<g filter="url(#filter0_d_14_2220)">
<path d="M13.1067 8.07174L11.9283 6.8934L4.16667 14.6551V15.8334H5.345L13.1067 8.07174ZM14.285 6.8934L15.4633 5.71507L14.285 4.53674L13.1067 5.71507L14.285 6.8934ZM6.035 17.5001H2.5V13.9642L13.6958 2.7684C13.8521 2.61218 14.064 2.52441 14.285 2.52441C14.506 2.52441 14.7179 2.61218 14.8742 2.7684L17.2317 5.1259C17.3879 5.28218 17.4757 5.4941 17.4757 5.71507C17.4757 5.93604 17.3879 6.14796 17.2317 6.30424L6.03583 17.5001H6.035Z" fill="white"/>
</g>
<defs>
<filter id="filter0_d_14_2220" x="-1.5" y="2.52441" width="22.9756" height="22.9756" filterUnits="userSpaceOnUse" color-interpolation-filters="sRGB">
<feFlood flood-opacity="0" result="BackgroundImageFix"/>
<feColorMatrix in="SourceAlpha" type="matrix" values="0 0 0 0 0 0 0 0 0 0 0 0 0 0 0 0 0 0 127 0" result="hardAlpha"/>
<feOffset dy="4"/>
<feGaussianBlur stdDeviation="2"/>
<feComposite in2="hardAlpha" operator="out"/>
<feColorMatrix type="matrix" values="0 0 0 0 0 0 0 0 0 0 0 0 0 0 0 0 0 0 0.25 0"/>
<feBlend mode="normal" in2="BackgroundImageFix" result="effect1_dropShadow_14_2220"/>
<feBlend mode="normal" in="SourceGraphic" in2="effect1_dropShadow_14_2220" result="shape"/>
</filter>
</defs>
</svg>
