<svg width="17" height="19" viewBox="0 0 17 19" fill="none" xmlns="http://www.w3.org/2000/svg">
<path d="M8.66668 11.8766V13.6183C7.91244 13.3516 7.10524 13.2698 6.31285 13.3797C5.52045 13.4897 4.76601 13.7882 4.11287 14.2501C3.45973 14.712 2.92696 15.3239 2.55931 16.0344C2.19166 16.7449 1.99986 17.5333 2.00001 18.3333L0.333344 18.3324C0.333085 17.3148 0.565778 16.3107 1.01359 15.3969C1.46141 14.4832 2.11246 13.684 2.91686 13.0608C3.72126 12.4375 4.65766 12.0067 5.6543 11.8013C6.65095 11.5959 7.6814 11.6214 8.66668 11.8758V11.8766ZM7.00001 10.8333C4.23751 10.8333 2.00001 8.59575 2.00001 5.83325C2.00001 3.07075 4.23751 0.833252 7.00001 0.833252C9.76251 0.833252 12 3.07075 12 5.83325C12 8.59575 9.76251 10.8333 7.00001 10.8333ZM7.00001 9.16658C8.84168 9.16658 10.3333 7.67492 10.3333 5.83325C10.3333 3.99159 8.84168 2.49992 7.00001 2.49992C5.15834 2.49992 3.66668 3.99159 3.66668 5.83325C3.66668 7.67492 5.15834 9.16658 7.00001 9.16658ZM12 14.1666V11.6666H13.6667V14.1666H16.1667V15.8333H13.6667V18.3333H12V15.8333H9.50001V14.1666H12Z" fill="white"/>
</svg>
