<svg width="11" height="11" viewBox="0 0 11 11" fill="none" xmlns="http://www.w3.org/2000/svg">
<path d="M9.29165 9.33342H1.70831V9.87508C1.70831 10.0187 1.65124 10.1565 1.54966 10.2581C1.44808 10.3597 1.31031 10.4167 1.16665 10.4167H0.62498C0.481321 10.4167 0.343546 10.3597 0.241963 10.2581C0.140381 10.1565 0.083313 10.0187 0.083313 9.87508V4.45842L1.42665 1.32325C1.51024 1.12825 1.64925 0.962086 1.82643 0.845379C2.0036 0.728673 2.21115 0.66656 2.42331 0.666748H8.57665C8.78862 0.666772 8.99594 0.728984 9.1729 0.845677C9.34987 0.962371 9.48871 1.12842 9.57223 1.32325L10.9166 4.45842V9.87508C10.9166 10.0187 10.8596 10.1565 10.758 10.2581C10.6564 10.3597 10.5186 10.4167 10.375 10.4167H9.83331C9.68965 10.4167 9.55188 10.3597 9.4503 10.2581C9.34871 10.1565 9.29165 10.0187 9.29165 9.87508V9.33342ZM9.83331 5.54175H1.16665V8.25008H9.83331V5.54175ZM1.26198 4.45842H9.73798L8.57719 1.75008H2.42331L1.26252 4.45842H1.26198ZM2.52081 7.70842C2.30532 7.70842 2.09866 7.62281 1.94629 7.47044C1.79392 7.31807 1.70831 7.1114 1.70831 6.89592C1.70831 6.68043 1.79392 6.47376 1.94629 6.32139C2.09866 6.16902 2.30532 6.08342 2.52081 6.08342C2.7363 6.08342 2.94296 6.16902 3.09534 6.32139C3.24771 6.47376 3.33331 6.68043 3.33331 6.89592C3.33331 7.1114 3.24771 7.31807 3.09534 7.47044C2.94296 7.62281 2.7363 7.70842 2.52081 7.70842V7.70842ZM8.47915 7.70842C8.26366 7.70842 8.057 7.62281 7.90462 7.47044C7.75225 7.31807 7.66665 7.1114 7.66665 6.89592C7.66665 6.68043 7.75225 6.47376 7.90462 6.32139C8.057 6.16902 8.26366 6.08342 8.47915 6.08342C8.69464 6.08342 8.9013 6.16902 9.05367 6.32139C9.20604 6.47376 9.29165 6.68043 9.29165 6.89592C9.29165 7.1114 9.20604 7.31807 9.05367 7.47044C8.9013 7.62281 8.69464 7.70842 8.47915 7.70842V7.70842Z" fill="#9DADBA"/>
</svg>
