<svg width="9" height="12" viewBox="0 0 9 12" fill="none" xmlns="http://www.w3.org/2000/svg">
<path d="M0.166687 11.4167C0.166687 10.2675 0.623233 9.16528 1.43589 8.35262C2.24855 7.53996 3.35075 7.08341 4.50002 7.08341C5.64929 7.08341 6.75149 7.53996 7.56415 8.35262C8.37681 9.16528 8.83335 10.2675 8.83335 11.4167H0.166687ZM5.04169 8.21171V10.3334H7.56531C7.37168 9.78709 7.03567 9.30239 6.59202 8.92939C6.14836 8.55639 5.61315 8.30863 5.04169 8.21171V8.21171ZM3.95835 10.3334V8.21171C3.38689 8.30863 2.85168 8.55639 2.40802 8.92939C1.96437 9.30239 1.62836 9.78709 1.43473 10.3334H3.95835ZM4.50002 6.54175C2.7044 6.54175 1.25002 5.08737 1.25002 3.29175C1.25002 1.49612 2.7044 0.041748 4.50002 0.041748C6.29564 0.041748 7.75002 1.49612 7.75002 3.29175C7.75002 5.08737 6.29564 6.54175 4.50002 6.54175ZM4.50002 5.45841C5.6971 5.45841 6.66669 4.48883 6.66669 3.29175C6.66669 2.09466 5.6971 1.12508 4.50002 1.12508C3.30294 1.12508 2.33335 2.09466 2.33335 3.29175C2.33335 4.48883 3.30294 5.45841 4.50002 5.45841Z" fill="#9DADBA"/>
</svg>
