<svg width="11" height="11" viewBox="0 0 11 11" fill="none" xmlns="http://www.w3.org/2000/svg">
<path d="M2.79165 2.20841V0.583415C2.79165 0.439756 2.84871 0.301981 2.9503 0.200399C3.05188 0.0988163 3.18965 0.041748 3.33331 0.041748H7.66665C7.81031 0.041748 7.94808 0.0988163 8.04966 0.200399C8.15125 0.301981 8.20831 0.439756 8.20831 0.583415V2.20841H10.375C10.5186 2.20841 10.6564 2.26548 10.758 2.36707C10.8596 2.46865 10.9166 2.60642 10.9166 2.75008V10.3334C10.9166 10.4771 10.8596 10.6148 10.758 10.7164C10.6564 10.818 10.5186 10.8751 10.375 10.8751H0.62498C0.481321 10.8751 0.343546 10.818 0.241963 10.7164C0.140381 10.6148 0.083313 10.4771 0.083313 10.3334V2.75008C0.083313 2.60642 0.140381 2.46865 0.241963 2.36707C0.343546 2.26548 0.481321 2.20841 0.62498 2.20841H2.79165ZM3.87498 6.54175H1.16665V9.79175H9.83331V6.54175H7.12498V8.16675H3.87498V6.54175ZM9.83331 3.29175H1.16665V5.45841H3.87498V4.37508H7.12498V5.45841H9.83331V3.29175ZM4.95831 5.45841V7.08341H6.04165V5.45841H4.95831ZM3.87498 1.12508V2.20841H7.12498V1.12508H3.87498Z" fill="#9DADBA"/>
</svg>
