<svg width="13" height="11" viewBox="0 0 13 11" fill="none" xmlns="http://www.w3.org/2000/svg">
<path d="M4.68327 7.8491L6.52061 9.02018L8.35794 7.84964L9.36544 8.49152L6.52061 10.3039L3.67577 8.49152L4.68327 7.84964V7.8491ZM4.20823 3.3641L5.50444 2.52289L4.1909 1.67031L2.86002 2.49202L4.20877 3.3641H4.20823ZM5.2049 4.00868L6.50002 4.84772L7.79461 4.00977L6.50002 3.16856L5.2049 4.00922V4.00868ZM7.49669 5.49285L8.80969 6.34218L10.1368 5.5286L8.79073 4.65543L7.49669 5.49231V5.49285ZM6.50002 1.87668L8.79507 0.388184L12.1659 2.47035L9.78686 4.01031L12.1664 5.55406L8.79398 7.62268L6.50002 6.13743L4.20607 7.6216L0.831482 5.55406L3.21265 4.00977L0.833649 2.47035L4.20498 0.388725L6.50002 1.87723V1.87668ZM7.49507 2.52235L8.79127 3.3641L10.1395 2.49202L8.80915 1.67031L7.49507 2.52289V2.52235ZM5.50336 5.49285L4.20877 4.65543L2.86219 5.52914L4.18982 6.34272L5.50336 5.49285Z" fill="#9DADBA"/>
</svg>
