<svg width="11" height="11" viewBox="0 0 11 11" fill="none" xmlns="http://www.w3.org/2000/svg">
<path d="M8.20831 1.12508H10.375C10.5186 1.12508 10.6564 1.18215 10.758 1.28373C10.8596 1.38531 10.9166 1.52309 10.9166 1.66675V10.3334C10.9166 10.4771 10.8596 10.6148 10.758 10.7164C10.6564 10.818 10.5186 10.8751 10.375 10.8751H0.62498C0.481321 10.8751 0.343546 10.818 0.241963 10.7164C0.140381 10.6148 0.083313 10.4771 0.083313 10.3334V1.66675C0.083313 1.52309 0.140381 1.38531 0.241963 1.28373C0.343546 1.18215 0.481321 1.12508 0.62498 1.12508H2.79165V0.041748H3.87498V1.12508H7.12498V0.041748H8.20831V1.12508ZM7.12498 2.20841H3.87498V3.29175H2.79165V2.20841H1.16665V4.37508H9.83331V2.20841H8.20831V3.29175H7.12498V2.20841ZM9.83331 5.45841H1.16665V9.79175H9.83331V5.45841Z" fill="#9DADBA"/>
</svg>
