<svg width="10" height="10" viewBox="0 0 10 10" fill="none" xmlns="http://www.w3.org/2000/svg">
<path d="M1.88708 0.27189C2.24839 0.142965 2.64031 0.126685 3.01107 0.225201C3.38183 0.323717 3.71398 0.532394 3.96364 0.823663C4.2133 1.11493 4.36872 1.47509 4.40937 1.85655C4.45003 2.23802 4.374 2.62284 4.19133 2.96018L9.99203 8.76143L9.22612 9.52735L3.42487 3.7261C3.08745 3.90805 2.70282 3.98349 2.32167 3.94249C1.94052 3.9015 1.58074 3.74598 1.28973 3.49644C0.998728 3.24689 0.790157 2.91504 0.691509 2.5446C0.59286 2.17416 0.608762 1.78253 0.73712 1.42131L1.94883 2.63302C2.02378 2.71062 2.11343 2.77252 2.21256 2.8151C2.31169 2.85768 2.41831 2.88009 2.52619 2.88103C2.63407 2.88197 2.74106 2.86141 2.84092 2.82056C2.94077 2.7797 3.03149 2.71937 3.10777 2.64309C3.18406 2.5668 3.24439 2.47608 3.28525 2.37623C3.3261 2.27637 3.34666 2.16938 3.34572 2.0615C3.34478 1.95362 3.32237 1.847 3.27978 1.74787C3.2372 1.64875 3.1753 1.55909 3.0977 1.48414L1.88654 0.271348L1.88708 0.27189ZM7.50254 1.29239L9.22612 0.334723L9.99203 1.10064L9.03437 2.82422L8.0767 3.01597L6.92837 4.16485L6.16191 3.39893L7.31079 2.25006L7.50254 1.29239V1.29239ZM3.86362 5.69722L4.62954 6.46314L1.75708 9.3356C1.65941 9.43354 1.52799 9.49041 1.38974 9.49455C1.25149 9.49869 1.11689 9.44978 1.01354 9.35786C0.910192 9.26595 0.845921 9.13797 0.833904 9.00018C0.821887 8.8624 0.863035 8.72523 0.948911 8.61681L0.991161 8.56968L3.86362 5.69722Z" fill="#9DADBA"/>
</svg>
