<svg width="11" height="12" viewBox="0 0 11 12" fill="none" xmlns="http://www.w3.org/2000/svg">
<path d="M9.83333 11.4166H1.16667C1.02301 11.4166 0.885233 11.3595 0.78365 11.2579C0.682068 11.1564 0.625 11.0186 0.625 10.8749V1.12492C0.625 0.98126 0.682068 0.843485 0.78365 0.741902C0.885233 0.64032 1.02301 0.583252 1.16667 0.583252H9.83333C9.97699 0.583252 10.1148 0.64032 10.2164 0.741902C10.3179 0.843485 10.375 0.98126 10.375 1.12492V10.8749C10.375 11.0186 10.3179 11.1564 10.2164 11.2579C10.1148 11.3595 9.97699 11.4166 9.83333 11.4166ZM3.33333 3.29159V4.37492H7.66667V3.29159H3.33333ZM3.33333 5.45825V6.54159H7.66667V5.45825H3.33333ZM3.33333 7.62492V8.70825H7.66667V7.62492H3.33333Z" fill="#9DADBA"/>
</svg>
