<svg width="13" height="12" viewBox="0 0 13 12" fill="none" xmlns="http://www.w3.org/2000/svg">
<path d="M11.375 10.3333H12.4584V11.4166H0.541687V10.3333H1.62502V1.12492C1.62502 0.98126 1.68209 0.843485 1.78367 0.741902C1.88525 0.64032 2.02303 0.583252 2.16669 0.583252H10.8334C10.977 0.583252 11.1148 0.64032 11.2164 0.741902C11.318 0.843485 11.375 0.98126 11.375 1.12492V10.3333ZM10.2917 10.3333V1.66659H2.70835V10.3333H10.2917ZM4.33335 5.45825H5.95835V6.54159H4.33335V5.45825ZM4.33335 3.29159H5.95835V4.37492H4.33335V3.29159ZM4.33335 7.62492H5.95835V8.70825H4.33335V7.62492ZM7.04169 7.62492H8.66669V8.70825H7.04169V7.62492ZM7.04169 5.45825H8.66669V6.54159H7.04169V5.45825ZM7.04169 3.29159H8.66669V4.37492H7.04169V3.29159Z" fill="#9DADBA"/>
</svg>
