<svg width="13" height="14" viewBox="0 0 13 14" fill="none" xmlns="http://www.w3.org/2000/svg">
<g clip-path="url(#clip0_14_252)">
<path d="M11.375 2.66659H3.79167C3.50435 2.66659 3.2288 2.78072 3.02563 2.98389C2.82247 3.18705 2.70833 3.4626 2.70833 3.74992C2.70833 4.03724 2.82247 4.31279 3.02563 4.51595C3.2288 4.71912 3.50435 4.83325 3.79167 4.83325H11.375V11.8749C11.375 12.0186 11.3179 12.1564 11.2164 12.2579C11.1148 12.3595 10.977 12.4166 10.8333 12.4166H3.79167C3.21703 12.4166 2.66593 12.1883 2.2596 11.782C1.85327 11.3757 1.625 10.8246 1.625 10.2499V3.74992C1.625 3.17528 1.85327 2.62418 2.2596 2.21785C2.66593 1.81153 3.21703 1.58325 3.79167 1.58325H10.8333C10.977 1.58325 11.1148 1.64032 11.2164 1.7419C11.3179 1.84348 11.375 1.98126 11.375 2.12492V2.66659ZM2.70833 10.2499C2.70833 10.5372 2.82247 10.8128 3.02563 11.016C3.2288 11.2191 3.50435 11.3333 3.79167 11.3333H10.2917V5.91659H3.79167C3.41132 5.91719 3.03758 5.81722 2.70833 5.62679V10.2499ZM10.8333 4.29159H3.79167C3.64801 4.29159 3.51023 4.23452 3.40865 4.13293C3.30707 4.03135 3.25 3.89358 3.25 3.74992C3.25 3.60626 3.30707 3.46848 3.40865 3.3669C3.51023 3.26532 3.64801 3.20825 3.79167 3.20825H10.8333V4.29159Z" fill="#9DADBA"/>
</g>
<defs>
<clipPath id="clip0_14_252">
<rect width="13" height="13" fill="white" transform="translate(0 0.5)"/>
</clipPath>
</defs>
</svg>
