<svg width="11" height="12" viewBox="0 0 11 12" fill="none" xmlns="http://www.w3.org/2000/svg">
<path d="M10.375 1.66659H2.79167C2.50435 1.66659 2.2288 1.78072 2.02563 1.98389C1.82247 2.18705 1.70833 2.4626 1.70833 2.74992C1.70833 3.03724 1.82247 3.31279 2.02563 3.51595C2.2288 3.71912 2.50435 3.83325 2.79167 3.83325H10.375V10.8749C10.375 11.0186 10.3179 11.1564 10.2164 11.2579C10.1148 11.3595 9.97699 11.4166 9.83333 11.4166H2.79167C2.21703 11.4166 1.66593 11.1883 1.2596 10.782C0.853273 10.3757 0.625 9.82455 0.625 9.24992V2.74992C0.625 2.17528 0.853273 1.62418 1.2596 1.21785C1.66593 0.811525 2.21703 0.583252 2.79167 0.583252H9.83333C9.97699 0.583252 10.1148 0.64032 10.2164 0.741902C10.3179 0.843485 10.375 0.98126 10.375 1.12492V1.66659ZM9.83333 3.29159H2.79167C2.64801 3.29159 2.51023 3.23452 2.40865 3.13293C2.30707 3.03135 2.25 2.89358 2.25 2.74992C2.25 2.60626 2.30707 2.46848 2.40865 2.3669C2.51023 2.26532 2.64801 2.20825 2.79167 2.20825H9.83333V3.29159Z" fill="#9DADBA"/>
</svg>
